<svg xmlns="http://www.w3.org/2000/svg" viewBox="0 0 294 313" width="294" height="313" role="img" aria-label="MAP — Your way home"><path fill="#6e006e" d="M0.13 70.25 121.25 1.43 122.25 2.01 122.25 68.7 59.56 104.68 59.56 105.68 0.13 71.25ZM180.69 37.14 243.13 0.35 244.13 0.93 244.13 57.31 180.69 93.78 179.69 94.36 179.69 37.14Z"/><path fill="#a308a3" d="M0.13 70.25 59.56 104.68 59.56 269.27 0.13 308.89ZM121.25 1.43 180.69 35.85 180.69 190.04 121.25 229.66ZM243.13 0.35 292.87 29.15 292.87 117.43 243.13 149.52Z"/><path fill="#a308a3" fill-rule="evenodd" d="M80.06 220.89 115.52 243.83 151 220.9 151 287.69 134.25 287.69 134.25 250.21 115.53 262.69 96.81 250.21 96.81 287.69 80.06 287.69ZM190.69 220.1 226.98 287.35 208.77 287.35 204.53 277.81 177.91 277.81 173.68 287.35 154.39 287.35ZM190.69 253.33 197.02 264.94 185.42 264.94ZM187.5 266.19 193.87 266.19 193.87 275.82 187.5 275.82ZM230.5 287.94V220.69H264.65A22.59 22.59 0 0 1 264.65 265.87H246.31V287.94ZM246.31 235.44H264.64A8.6 8.6 0 0 1 264.64 252.63H246.31Z"/><path fill="#6e006e" stroke="#6e006e" stroke-width="0.2" stroke-linejoin="round" d="M78.48 305.72V312.43H74.97V305.72L68.99 296.08H72.67L76.7 302.99L80.78 296.08H84.46ZM103.52 304.18Q103.52 306.73 102.57 308.67Q101.62 310.61 99.85 311.63Q98.08 312.66 95.71 312.66Q92.08 312.66 90.02 310.39Q87.96 308.12 87.96 304.18Q87.96 300.24 90.02 298.04Q92.07 295.83 95.74 295.83Q99.4 295.83 101.46 298.06Q103.52 300.29 103.52 304.18ZM100.23 304.18Q100.23 301.53 99.05 300.03Q97.87 298.53 95.74 298.53Q93.57 298.53 92.39 300.02Q91.21 301.51 91.21 304.18Q91.21 306.87 92.42 308.42Q93.63 309.97 95.71 309.97Q97.88 309.97 99.06 308.46Q100.23 306.95 100.23 304.18ZM115.36 312.66Q112.1 312.66 110.37 311.01Q108.64 309.37 108.64 306.3V296.08H111.95V306.03Q111.95 307.97 112.84 308.98Q113.73 309.98 115.45 309.98Q117.22 309.98 118.17 308.93Q119.13 307.88 119.13 305.92V296.08H122.43V306.13Q122.43 309.24 120.58 310.95Q118.72 312.66 115.36 312.66ZM138.75 312.43 135.17 306.22H131.38V312.43H128.16V296.08H135.86Q138.62 296.08 140.11 297.34Q141.61 298.6 141.61 300.95Q141.61 302.67 140.69 303.92Q139.77 305.16 138.21 305.56L142.38 312.43ZM138.36 301.09Q138.36 298.73 135.52 298.73H131.38V303.56H135.61Q136.96 303.56 137.66 302.91Q138.36 302.26 138.36 301.09ZM167.12 312.43H163.32L161.24 302.97Q160.86 301.3 160.6 299.48Q160.34 301 160.18 301.79Q160.01 302.59 157.86 312.43H154.06L150.12 296.08H153.36L155.58 306.64L156.08 309.19Q156.39 307.58 156.67 306.11Q156.96 304.64 158.84 296.08H162.43L164.36 304.78Q164.59 305.76 165.13 309.19L165.4 307.85L165.98 305.18L167.83 296.08H171.07ZM185.88 312.43 184.46 308.25H178.37L176.95 312.43H173.61L179.44 296.08H183.38L189.19 312.43ZM181.41 298.6 181.34 298.85Q181.23 299.27 181.07 299.8Q180.91 300.34 179.12 305.68H183.71L182.13 300.97L181.65 299.4ZM199.27 305.72V312.43H195.72V305.72L189.67 296.08H193.4L197.47 302.99L201.6 296.08H205.33ZM228.31 312.43V305.42H221.34V312.43H218V296.08H221.34V302.59H228.31V296.08H231.65V312.43ZM252.24 304.18Q252.24 306.73 251.29 308.67Q250.33 310.61 248.56 311.63Q246.78 312.66 244.41 312.66Q240.76 312.66 238.69 310.39Q236.62 308.12 236.62 304.18Q236.62 300.24 238.69 298.04Q240.75 295.83 244.43 295.83Q248.11 295.83 250.17 298.06Q252.24 300.29 252.24 304.18ZM248.94 304.18Q248.94 301.53 247.75 300.03Q246.57 298.53 244.43 298.53Q242.25 298.53 241.07 300.02Q239.88 301.51 239.88 304.18Q239.88 306.87 241.1 308.42Q242.31 309.97 244.41 309.97Q246.58 309.97 247.76 308.46Q248.94 306.95 248.94 304.18ZM271.72 312.43V302.52Q271.72 302.18 271.72 301.84Q271.73 301.51 271.84 298.95Q270.97 302.08 270.56 303.31L267.46 312.43H264.9L261.8 303.31L260.5 298.95Q260.64 301.65 260.64 302.52V312.43H257.45V296.08H262.26L265.34 305.22L265.61 306.1L266.19 308.3L266.96 305.68L270.12 296.08H274.91V312.43ZM280.8 312.43V296.08H292.88V298.72H284.02V302.83H292.22V305.48H284.02V309.78H293.33V312.43Z"/></svg>
